<svg width="200" height="200" viewBox="0 0 16 16" fill="none" xmlns="http://www.w3.org/2000/svg">
<path fill-rule="evenodd" clip-rule="evenodd" d="M1.47205 1.47198V14.528H14.528V1.47198H1.47205ZM11.3927 7.81343V7.81361C11.5179 7.814 11.6602 7.82045 11.7672 7.83205C12.203 7.8792 12.5424 8.06722 12.8311 8.42136C12.9749 8.59777 13.0241 8.67497 13.0136 8.70799C13.0069 8.72929 12.9082 8.79995 12.5945 9.00817C12.2864 9.21272 12.1872 9.27399 12.1641 9.27399C12.1407 9.27399 12.0921 9.22388 12.0219 9.12767C11.8867 8.94242 11.7487 8.85787 11.5353 8.82967C11.3059 8.79929 11.1 8.87161 10.9992 9.01811C10.9131 9.14327 10.9001 9.3447 10.9686 9.49104C11.0479 9.66056 11.1915 9.75428 11.7419 9.99562C12.3766 10.2739 12.6983 10.4644 12.9326 10.7009C13.1848 10.9555 13.3126 11.2494 13.3519 11.6652C13.3711 11.8679 13.3477 12.1081 13.2897 12.3034C13.1474 12.7822 12.7636 13.1327 12.201 13.2977C12.0455 13.3433 11.9008 13.3706 11.7577 13.381C11.5392 13.3971 11.2264 13.3883 11.0381 13.3609C10.5618 13.2915 10.0242 13.0143 9.75606 12.7001C9.62445 12.5458 9.45644 12.2919 9.45644 12.2473C9.45644 12.2257 9.46712 12.2135 9.50943 12.1866C9.63492 12.1068 10.354 11.6957 10.368 11.6957C10.3764 11.6957 10.414 11.74 10.4514 11.7941C10.5363 11.9166 10.7449 12.1271 10.8509 12.1974C10.9376 12.2548 11.0483 12.3008 11.1798 12.3341C11.2552 12.3529 11.2951 12.3562 11.4594 12.3562C11.6273 12.3561 11.6618 12.3533 11.7369 12.3331C11.9356 12.2797 12.0907 12.169 12.1565 12.0338C12.1853 11.9754 12.1858 11.9681 12.1858 11.8264V11.6796L12.1505 11.6095C12.065 11.4397 11.8806 11.3232 11.2979 11.0708C11.0302 10.9548 10.7023 10.7913 10.5743 10.71C10.2822 10.5243 10.0798 10.3121 9.94691 10.0523C9.81475 9.79399 9.79504 9.69783 9.79472 9.30939C9.7944 9.00531 9.79389 9.00904 9.85685 8.81495C9.91397 8.63883 10.0309 8.44209 10.16 8.30491C10.4176 8.03104 10.794 7.85505 11.197 7.82004C11.2485 7.81516 11.3175 7.81326 11.3927 7.81348L11.3927 7.81343ZM7.92517 7.87349H7.92529C8.70139 7.87388 9.14628 7.87657 9.15342 7.88105C9.16687 7.88938 9.16854 7.95692 9.16854 8.388V8.88531L8.39411 8.88812L7.61968 8.89093V11.0897C7.61968 12.2991 7.61723 13.2958 7.61387 13.3046C7.60839 13.3194 7.54883 13.3205 7.04494 13.3205H6.48212L6.47631 13.2978C6.47255 13.2853 6.46981 12.2886 6.46975 11.0829L6.46956 8.89081L5.69513 8.88806L4.9207 8.88525V8.39382C4.9207 8.00406 4.92339 7.89968 4.93376 7.88931C4.94442 7.87832 5.33965 7.87549 7.04262 7.87381C7.37098 7.87348 7.66645 7.87333 7.92517 7.87349Z" fill="#0288D1"/>
</svg>
